<?xml version="1.0" encoding="UTF-8" standalone="no"?>
<!-- Created with Inkscape (http://www.inkscape.org/) -->

<svg
   xmlns:dc="http://purl.org/dc/elements/1.1/"
   xmlns:cc="http://creativecommons.org/ns#"
   xmlns:rdf="http://www.w3.org/1999/02/22-rdf-syntax-ns#"
   xmlns:svg="http://www.w3.org/2000/svg"
   xmlns="http://www.w3.org/2000/svg"
   version="1.1"
   width="48"
   height="48"
   id="svg3131">
  <defs
     id="defs3133" />
  <metadata
     id="metadata3136">
    <rdf:RDF>
      <cc:Work
         rdf:about="">
        <dc:format>image/svg+xml</dc:format>
        <dc:type
           rdf:resource="http://purl.org/dc/dcmitype/StillImage" />
        <dc:title></dc:title>
      </cc:Work>
    </rdf:RDF>
  </metadata>
  <g
     id="layer1">
    <g
       transform="scale(3,3)"
       id="layer1-0">
      <path
         d="M 15,2 9,2 8,4 1,4 1,14 15,14 z"
         id="path2995-8"
         style="fill:#cccccc;fill-opacity:1;stroke:none" />
      <path
         d="m 1,2 6,0 1,2 7,0 0,10 -14,0 z"
         id="path2995"
         style="fill:#333333;fill-opacity:1;stroke:none" />
    </g>
    <path
       d="m 21,18 9,0 6,6 0,12 -15,0 z"
       id="path2995-2-6"
       style="fill:#999999;fill-opacity:1;stroke:none" />
    <path
       d="m 30,24 0,-6 6,6 z"
       id="path2995-2-2-1"
       style="fill:#666666;fill-opacity:1;stroke:none" />
    <g
       transform="matrix(3,0,0,3,3,0)"
       id="g3062">
      <path
         d="m 3,5 3,0 2,2 0,4 -5,0 z"
         id="path2995-2"
         style="fill:#cccccc;fill-opacity:1;stroke:none" />
      <path
         d="M 6,7 6,5 8,7 z"
         id="path2995-2-2"
         style="fill:#666666;fill-opacity:1;stroke:none" />
    </g>
  </g>
</svg>
