<?xml version="1.0" encoding="UTF-8" standalone="no"?>
<!-- Created with Inkscape (http://www.inkscape.org/) -->

<svg
   xmlns:dc="http://purl.org/dc/elements/1.1/"
   xmlns:cc="http://creativecommons.org/ns#"
   xmlns:rdf="http://www.w3.org/1999/02/22-rdf-syntax-ns#"
   xmlns:svg="http://www.w3.org/2000/svg"
   xmlns="http://www.w3.org/2000/svg"
   version="1.1"
   width="48"
   height="48"
   id="svg4195">
  <defs
     id="defs4197" />
  <metadata
     id="metadata4200">
    <rdf:RDF>
      <cc:Work
         rdf:about="">
        <dc:format>image/svg+xml</dc:format>
        <dc:type
           rdf:resource="http://purl.org/dc/dcmitype/StillImage" />
        <dc:title></dc:title>
      </cc:Work>
    </rdf:RDF>
  </metadata>
  <g
     id="layer1">
    <g
       transform="scale(3,3)"
       id="layer1-9">
      <path
         d="M 15,2 9,2 8,4 1,4 1,14 15,14 z"
         id="path2995-8"
         style="fill:#cccccc;fill-opacity:1;stroke:none" />
      <path
         d="m 1,2 6,0 1,2 7,0 0,10 -14,0 z"
         id="path2995"
         style="fill:#333333;fill-opacity:1;stroke:none" />
    </g>
    <path
       d="M 18.857142,21.6 12,36 22.285713,36 32.571426,36 36,36 29.142855,25.2 l -2.785713,4.275 -7.5,-7.875 z"
       id="path2995-4"
       style="fill:#cccccc;fill-opacity:1;stroke:none" />
    <path
       d="M 10,7 A 1,1 0 1 1 8,7 1,1 0 1 1 10,7 z"
       transform="scale(3,3)"
       id="path4177"
       style="fill:#cccccc;fill-opacity:1;stroke:none" />
  </g>
</svg>
