<?xml version="1.0" encoding="UTF-8" standalone="no"?>
<!-- Created with Inkscape (http://www.inkscape.org/) -->

<svg
   xmlns:dc="http://purl.org/dc/elements/1.1/"
   xmlns:cc="http://creativecommons.org/ns#"
   xmlns:rdf="http://www.w3.org/1999/02/22-rdf-syntax-ns#"
   xmlns:svg="http://www.w3.org/2000/svg"
   xmlns="http://www.w3.org/2000/svg"
   version="1.1"
   width="48"
   height="48"
   id="svg4006">
  <defs
     id="defs4008" />
  <metadata
     id="metadata4011">
    <rdf:RDF>
      <cc:Work
         rdf:about="">
        <dc:format>image/svg+xml</dc:format>
        <dc:type
           rdf:resource="http://purl.org/dc/dcmitype/StillImage" />
        <dc:title></dc:title>
      </cc:Work>
    </rdf:RDF>
  </metadata>
  <g
     id="layer1">
    <g
       transform="scale(3,3)"
       id="layer1-0">
      <path
         d="M 15,2 9,2 8,4 1,4 1,14 15,14 z"
         id="path2995-8"
         style="fill:#cccccc;fill-opacity:1;stroke:none" />
      <path
         d="m 1,2 6,0 1,2 7,0 0,10 -14,0 z"
         id="path2995"
         style="fill:#333333;fill-opacity:1;stroke:none" />
    </g>
    <path
       d="m 24,18 0,12.28125 C 23.531097,30.170838 23.025603,30 22.5,30 20.014719,30 18,31.343145 18,33 c 0,1.656855 2.014719,3 4.5,3 2.485281,0 4.5,-1.343145 4.5,-3 l 0,-15 -3,0 z"
       id="path3984"
       style="fill:#cccccc;fill-opacity:1;stroke:none" />
  </g>
</svg>
